<mxfile host="app.diagrams.net" modified="2023-11-06T07:06:54.304Z" agent="Mozilla/5.0 (Windows NT 10.0; Win64; x64; rv:109.0) Gecko/20100101 Firefox/119.0" etag="ifScS4FO_98KSGQdlWqy" version="22.0.8" type="device">
  <diagram name="Page-1" id="sxzsncqOsGeEXjMm2M6f">
    <mxGraphModel dx="700" dy="377" grid="1" gridSize="10" guides="1" tooltips="1" connect="1" arrows="1" fold="1" page="1" pageScale="1" pageWidth="827" pageHeight="1450" math="0" shadow="0">
      <root>
        <mxCell id="0" />
        <mxCell id="1" parent="0" />
        <mxCell id="CO_zZ5vlkB0ko-RMvLo9-1" value="&lt;div&gt;Dāvis Lektauers, 11.1&lt;/div&gt;&lt;div&gt;06.11.2023&lt;/div&gt;&lt;div&gt;2. variants - karātavas&lt;br&gt;&lt;/div&gt;" style="text;html=1;strokeColor=none;fillColor=none;align=left;verticalAlign=middle;whiteSpace=wrap;rounded=0;" vertex="1" parent="1">
          <mxGeometry x="10" width="160" height="60" as="geometry" />
        </mxCell>
        <mxCell id="CO_zZ5vlkB0ko-RMvLo9-4" style="edgeStyle=orthogonalEdgeStyle;rounded=0;orthogonalLoop=1;jettySize=auto;html=1;exitX=0.5;exitY=1;exitDx=0;exitDy=0;entryX=0.5;entryY=0;entryDx=0;entryDy=0;" edge="1" parent="1" source="CO_zZ5vlkB0ko-RMvLo9-2" target="CO_zZ5vlkB0ko-RMvLo9-3">
          <mxGeometry relative="1" as="geometry" />
        </mxCell>
        <mxCell id="CO_zZ5vlkB0ko-RMvLo9-2" value="Sākums" style="ellipse;whiteSpace=wrap;html=1;" vertex="1" parent="1">
          <mxGeometry x="454" y="40" width="120" height="40" as="geometry" />
        </mxCell>
        <mxCell id="CO_zZ5vlkB0ko-RMvLo9-7" style="edgeStyle=orthogonalEdgeStyle;rounded=0;orthogonalLoop=1;jettySize=auto;html=1;exitX=0.5;exitY=1;exitDx=0;exitDy=0;entryX=0.5;entryY=0;entryDx=0;entryDy=0;" edge="1" parent="1" source="CO_zZ5vlkB0ko-RMvLo9-3" target="CO_zZ5vlkB0ko-RMvLo9-5">
          <mxGeometry relative="1" as="geometry" />
        </mxCell>
        <mxCell id="CO_zZ5vlkB0ko-RMvLo9-3" value="&lt;div&gt;lives = 5&lt;/div&gt;&lt;div&gt;word = random.choice([vārdi])&lt;br&gt;&lt;/div&gt;&lt;div&gt;guessed_letters = []&lt;br&gt;&lt;/div&gt;" style="rounded=0;whiteSpace=wrap;html=1;" vertex="1" parent="1">
          <mxGeometry x="420.5" y="120" width="187" height="60" as="geometry" />
        </mxCell>
        <mxCell id="CO_zZ5vlkB0ko-RMvLo9-9" style="edgeStyle=orthogonalEdgeStyle;rounded=0;orthogonalLoop=1;jettySize=auto;html=1;exitX=0;exitY=0.5;exitDx=0;exitDy=0;entryX=0.5;entryY=0;entryDx=0;entryDy=0;" edge="1" parent="1" source="CO_zZ5vlkB0ko-RMvLo9-5" target="CO_zZ5vlkB0ko-RMvLo9-6">
          <mxGeometry relative="1" as="geometry">
            <Array as="points">
              <mxPoint x="421" y="250" />
              <mxPoint x="421" y="200" />
              <mxPoint x="281" y="200" />
            </Array>
          </mxGeometry>
        </mxCell>
        <mxCell id="CO_zZ5vlkB0ko-RMvLo9-5" value="&lt;div&gt;hidden_word = &quot;&quot;&lt;/div&gt;&lt;div&gt;i = 0&lt;br&gt;&lt;/div&gt;" style="rounded=0;whiteSpace=wrap;html=1;" vertex="1" parent="1">
          <mxGeometry x="443.75" y="230" width="140.5" height="40" as="geometry" />
        </mxCell>
        <mxCell id="CO_zZ5vlkB0ko-RMvLo9-14" style="edgeStyle=orthogonalEdgeStyle;rounded=0;orthogonalLoop=1;jettySize=auto;html=1;exitX=0;exitY=0.5;exitDx=0;exitDy=0;entryX=0.5;entryY=0;entryDx=0;entryDy=0;" edge="1" parent="1" source="CO_zZ5vlkB0ko-RMvLo9-6">
          <mxGeometry relative="1" as="geometry">
            <mxPoint x="171" y="380" as="targetPoint" />
          </mxGeometry>
        </mxCell>
        <mxCell id="CO_zZ5vlkB0ko-RMvLo9-15" value="Nē" style="edgeLabel;html=1;align=center;verticalAlign=middle;resizable=0;points=[];" vertex="1" connectable="0" parent="CO_zZ5vlkB0ko-RMvLo9-14">
          <mxGeometry x="-0.82" y="1" relative="1" as="geometry">
            <mxPoint x="-4" y="-11" as="offset" />
          </mxGeometry>
        </mxCell>
        <mxCell id="CO_zZ5vlkB0ko-RMvLo9-6" value="i == len(word)" style="rhombus;whiteSpace=wrap;html=1;" vertex="1" parent="1">
          <mxGeometry x="201" y="250" width="160" height="60" as="geometry" />
        </mxCell>
        <mxCell id="CO_zZ5vlkB0ko-RMvLo9-21" style="edgeStyle=orthogonalEdgeStyle;rounded=0;orthogonalLoop=1;jettySize=auto;html=1;exitX=0;exitY=0.5;exitDx=0;exitDy=0;entryX=0.5;entryY=0;entryDx=0;entryDy=0;" edge="1" parent="1" source="CO_zZ5vlkB0ko-RMvLo9-13" target="CO_zZ5vlkB0ko-RMvLo9-19">
          <mxGeometry relative="1" as="geometry">
            <Array as="points">
              <mxPoint x="60" y="410" />
              <mxPoint x="60" y="460" />
              <mxPoint x="108" y="460" />
            </Array>
          </mxGeometry>
        </mxCell>
        <mxCell id="CO_zZ5vlkB0ko-RMvLo9-27" value="Jā" style="edgeLabel;html=1;align=center;verticalAlign=middle;resizable=0;points=[];" vertex="1" connectable="0" parent="CO_zZ5vlkB0ko-RMvLo9-21">
          <mxGeometry x="-0.7925" relative="1" as="geometry">
            <mxPoint y="-9" as="offset" />
          </mxGeometry>
        </mxCell>
        <mxCell id="CO_zZ5vlkB0ko-RMvLo9-23" style="edgeStyle=orthogonalEdgeStyle;rounded=0;orthogonalLoop=1;jettySize=auto;html=1;exitX=1;exitY=0.5;exitDx=0;exitDy=0;entryX=0.5;entryY=0;entryDx=0;entryDy=0;" edge="1" parent="1" source="CO_zZ5vlkB0ko-RMvLo9-13" target="CO_zZ5vlkB0ko-RMvLo9-22">
          <mxGeometry relative="1" as="geometry" />
        </mxCell>
        <mxCell id="CO_zZ5vlkB0ko-RMvLo9-26" value="Nē" style="edgeLabel;html=1;align=center;verticalAlign=middle;resizable=0;points=[];" vertex="1" connectable="0" parent="CO_zZ5vlkB0ko-RMvLo9-23">
          <mxGeometry x="-0.591" relative="1" as="geometry">
            <mxPoint x="-10" y="-10" as="offset" />
          </mxGeometry>
        </mxCell>
        <mxCell id="CO_zZ5vlkB0ko-RMvLo9-13" value="word[i] in guessed_letters" style="rhombus;whiteSpace=wrap;html=1;" vertex="1" parent="1">
          <mxGeometry x="80" y="380" width="180" height="60" as="geometry" />
        </mxCell>
        <mxCell id="CO_zZ5vlkB0ko-RMvLo9-18" style="edgeStyle=orthogonalEdgeStyle;rounded=0;orthogonalLoop=1;jettySize=auto;html=1;exitX=0.5;exitY=0;exitDx=0;exitDy=0;entryX=0.5;entryY=1;entryDx=0;entryDy=0;" edge="1" parent="1" source="CO_zZ5vlkB0ko-RMvLo9-17" target="CO_zZ5vlkB0ko-RMvLo9-6">
          <mxGeometry relative="1" as="geometry" />
        </mxCell>
        <mxCell id="CO_zZ5vlkB0ko-RMvLo9-17" value="i += 1" style="rounded=0;whiteSpace=wrap;html=1;" vertex="1" parent="1">
          <mxGeometry x="241" y="330" width="80" height="40" as="geometry" />
        </mxCell>
        <mxCell id="CO_zZ5vlkB0ko-RMvLo9-25" style="edgeStyle=orthogonalEdgeStyle;rounded=0;orthogonalLoop=1;jettySize=auto;html=1;exitX=0.5;exitY=1;exitDx=0;exitDy=0;entryX=1;entryY=0.5;entryDx=0;entryDy=0;" edge="1" parent="1" source="CO_zZ5vlkB0ko-RMvLo9-19" target="CO_zZ5vlkB0ko-RMvLo9-17">
          <mxGeometry relative="1" as="geometry">
            <Array as="points">
              <mxPoint x="108" y="540" />
              <mxPoint x="420" y="540" />
              <mxPoint x="420" y="350" />
            </Array>
          </mxGeometry>
        </mxCell>
        <mxCell id="CO_zZ5vlkB0ko-RMvLo9-19" value="hidden_word += word[i]" style="rounded=0;whiteSpace=wrap;html=1;" vertex="1" parent="1">
          <mxGeometry x="38" y="480" width="140" height="30" as="geometry" />
        </mxCell>
        <mxCell id="CO_zZ5vlkB0ko-RMvLo9-24" style="edgeStyle=orthogonalEdgeStyle;rounded=0;orthogonalLoop=1;jettySize=auto;html=1;exitX=0.5;exitY=1;exitDx=0;exitDy=0;entryX=1;entryY=0.5;entryDx=0;entryDy=0;" edge="1" parent="1" source="CO_zZ5vlkB0ko-RMvLo9-22" target="CO_zZ5vlkB0ko-RMvLo9-17">
          <mxGeometry relative="1" as="geometry">
            <Array as="points">
              <mxPoint x="290" y="540" />
              <mxPoint x="420" y="540" />
              <mxPoint x="420" y="350" />
            </Array>
          </mxGeometry>
        </mxCell>
        <mxCell id="CO_zZ5vlkB0ko-RMvLo9-22" value="hidden_word += &quot;_&quot;" style="rounded=0;whiteSpace=wrap;html=1;" vertex="1" parent="1">
          <mxGeometry x="220" y="480" width="140" height="30" as="geometry" />
        </mxCell>
        <mxCell id="CO_zZ5vlkB0ko-RMvLo9-37" style="edgeStyle=orthogonalEdgeStyle;rounded=0;orthogonalLoop=1;jettySize=auto;html=1;exitX=0.5;exitY=1;exitDx=0;exitDy=0;entryX=0.5;entryY=0;entryDx=0;entryDy=0;" edge="1" parent="1" source="CO_zZ5vlkB0ko-RMvLo9-35" target="CO_zZ5vlkB0ko-RMvLo9-36">
          <mxGeometry relative="1" as="geometry" />
        </mxCell>
        <mxCell id="CO_zZ5vlkB0ko-RMvLo9-35" value="guess = input(&quot;Ievadiet burtu&quot;)" style="shape=step;perimeter=stepPerimeter;whiteSpace=wrap;html=1;fixedSize=1;size=16;" vertex="1" parent="1">
          <mxGeometry x="454" y="390" width="206" height="40" as="geometry" />
        </mxCell>
        <mxCell id="CO_zZ5vlkB0ko-RMvLo9-47" style="edgeStyle=orthogonalEdgeStyle;rounded=0;orthogonalLoop=1;jettySize=auto;html=1;exitX=0.5;exitY=1;exitDx=0;exitDy=0;entryX=0.5;entryY=0;entryDx=0;entryDy=0;" edge="1" parent="1" source="CO_zZ5vlkB0ko-RMvLo9-36" target="CO_zZ5vlkB0ko-RMvLo9-46">
          <mxGeometry relative="1" as="geometry" />
        </mxCell>
        <mxCell id="CO_zZ5vlkB0ko-RMvLo9-48" value="Nē" style="edgeLabel;html=1;align=center;verticalAlign=middle;resizable=0;points=[];" vertex="1" connectable="0" parent="CO_zZ5vlkB0ko-RMvLo9-47">
          <mxGeometry x="-0.6645" relative="1" as="geometry">
            <mxPoint x="10" y="3" as="offset" />
          </mxGeometry>
        </mxCell>
        <mxCell id="CO_zZ5vlkB0ko-RMvLo9-36" value="&lt;div&gt;len(guess) != -1 vai&lt;/div&gt;&lt;div&gt;arī guess nav burts&lt;br&gt;&lt;/div&gt;" style="rhombus;whiteSpace=wrap;html=1;" vertex="1" parent="1">
          <mxGeometry x="467" y="460" width="180" height="80" as="geometry" />
        </mxCell>
        <mxCell id="CO_zZ5vlkB0ko-RMvLo9-41" style="edgeStyle=orthogonalEdgeStyle;rounded=0;orthogonalLoop=1;jettySize=auto;html=1;entryX=1;entryY=0.5;entryDx=0;entryDy=0;" edge="1" parent="1" source="CO_zZ5vlkB0ko-RMvLo9-38" target="CO_zZ5vlkB0ko-RMvLo9-35">
          <mxGeometry relative="1" as="geometry">
            <Array as="points">
              <mxPoint x="740" y="410" />
            </Array>
          </mxGeometry>
        </mxCell>
        <mxCell id="CO_zZ5vlkB0ko-RMvLo9-38" value="&quot;Jāievada viens burts!&quot;" style="shape=tape;whiteSpace=wrap;html=1;size=0.2;" vertex="1" parent="1">
          <mxGeometry x="680" y="475" width="130" height="50" as="geometry" />
        </mxCell>
        <mxCell id="CO_zZ5vlkB0ko-RMvLo9-39" style="edgeStyle=orthogonalEdgeStyle;rounded=0;orthogonalLoop=1;jettySize=auto;html=1;exitX=1;exitY=0.5;exitDx=0;exitDy=0;entryX=0;entryY=0.5;entryDx=0;entryDy=0;entryPerimeter=0;" edge="1" parent="1" source="CO_zZ5vlkB0ko-RMvLo9-36" target="CO_zZ5vlkB0ko-RMvLo9-38">
          <mxGeometry relative="1" as="geometry" />
        </mxCell>
        <mxCell id="CO_zZ5vlkB0ko-RMvLo9-43" value="Jā" style="edgeLabel;html=1;align=center;verticalAlign=middle;resizable=0;points=[];" vertex="1" connectable="0" parent="CO_zZ5vlkB0ko-RMvLo9-39">
          <mxGeometry x="-0.2439" y="-1" relative="1" as="geometry">
            <mxPoint x="-1" y="-10" as="offset" />
          </mxGeometry>
        </mxCell>
        <mxCell id="CO_zZ5vlkB0ko-RMvLo9-50" style="edgeStyle=orthogonalEdgeStyle;rounded=0;orthogonalLoop=1;jettySize=auto;html=1;exitX=0.5;exitY=1;exitDx=0;exitDy=0;entryX=0.5;entryY=0;entryDx=0;entryDy=0;" edge="1" parent="1" source="CO_zZ5vlkB0ko-RMvLo9-46" target="CO_zZ5vlkB0ko-RMvLo9-49">
          <mxGeometry relative="1" as="geometry" />
        </mxCell>
        <mxCell id="CO_zZ5vlkB0ko-RMvLo9-46" value="guessed_letters.append(guess.lower())" style="rounded=0;whiteSpace=wrap;html=1;" vertex="1" parent="1">
          <mxGeometry x="445.5" y="577" width="223" height="40" as="geometry" />
        </mxCell>
        <mxCell id="CO_zZ5vlkB0ko-RMvLo9-49" value="not guess in word" style="rhombus;whiteSpace=wrap;html=1;" vertex="1" parent="1">
          <mxGeometry x="485.5" y="653" width="143" height="60" as="geometry" />
        </mxCell>
        <mxCell id="CO_zZ5vlkB0ko-RMvLo9-56" style="edgeStyle=orthogonalEdgeStyle;rounded=0;orthogonalLoop=1;jettySize=auto;html=1;" edge="1" parent="1" source="CO_zZ5vlkB0ko-RMvLo9-53" target="CO_zZ5vlkB0ko-RMvLo9-35">
          <mxGeometry relative="1" as="geometry">
            <Array as="points">
              <mxPoint x="557" y="370" />
              <mxPoint x="557" y="370" />
            </Array>
          </mxGeometry>
        </mxCell>
        <mxCell id="CO_zZ5vlkB0ko-RMvLo9-53" value="f&quot;{hidden_word}&amp;nbsp;&amp;nbsp; Dzīvības: {lives}&quot;" style="shape=tape;whiteSpace=wrap;html=1;size=0.2;" vertex="1" parent="1">
          <mxGeometry x="454" y="313" width="218" height="50" as="geometry" />
        </mxCell>
        <mxCell id="CO_zZ5vlkB0ko-RMvLo9-54" style="edgeStyle=orthogonalEdgeStyle;rounded=0;orthogonalLoop=1;jettySize=auto;html=1;exitX=1;exitY=0.5;exitDx=0;exitDy=0;entryX=0.468;entryY=0.113;entryDx=0;entryDy=0;entryPerimeter=0;" edge="1" parent="1" source="CO_zZ5vlkB0ko-RMvLo9-6" target="CO_zZ5vlkB0ko-RMvLo9-53">
          <mxGeometry relative="1" as="geometry">
            <mxPoint x="563" y="320" as="targetPoint" />
            <Array as="points">
              <mxPoint x="556" y="280" />
            </Array>
          </mxGeometry>
        </mxCell>
        <mxCell id="CO_zZ5vlkB0ko-RMvLo9-57" value="Jā" style="edgeLabel;html=1;align=center;verticalAlign=middle;resizable=0;points=[];" vertex="1" connectable="0" parent="CO_zZ5vlkB0ko-RMvLo9-54">
          <mxGeometry x="-0.8431" relative="1" as="geometry">
            <mxPoint x="-7" y="-8" as="offset" />
          </mxGeometry>
        </mxCell>
        <mxCell id="CO_zZ5vlkB0ko-RMvLo9-70" style="edgeStyle=orthogonalEdgeStyle;rounded=0;orthogonalLoop=1;jettySize=auto;html=1;" edge="1" parent="1" source="CO_zZ5vlkB0ko-RMvLo9-58" target="CO_zZ5vlkB0ko-RMvLo9-69">
          <mxGeometry relative="1" as="geometry" />
        </mxCell>
        <mxCell id="CO_zZ5vlkB0ko-RMvLo9-58" value="(tukša rindiņa atdalīšanai)" style="shape=tape;whiteSpace=wrap;html=1;size=0.2;" vertex="1" parent="1">
          <mxGeometry x="180" y="658" width="130" height="50" as="geometry" />
        </mxCell>
        <mxCell id="CO_zZ5vlkB0ko-RMvLo9-59" style="edgeStyle=orthogonalEdgeStyle;rounded=0;orthogonalLoop=1;jettySize=auto;html=1;exitX=0;exitY=0.5;exitDx=0;exitDy=0;entryX=1;entryY=0.5;entryDx=0;entryDy=0;entryPerimeter=0;" edge="1" parent="1" source="CO_zZ5vlkB0ko-RMvLo9-49" target="CO_zZ5vlkB0ko-RMvLo9-58">
          <mxGeometry relative="1" as="geometry" />
        </mxCell>
        <mxCell id="CO_zZ5vlkB0ko-RMvLo9-66" value="Nē" style="edgeLabel;html=1;align=center;verticalAlign=middle;resizable=0;points=[];" vertex="1" connectable="0" parent="CO_zZ5vlkB0ko-RMvLo9-59">
          <mxGeometry x="-0.7892" y="2" relative="1" as="geometry">
            <mxPoint y="-10" as="offset" />
          </mxGeometry>
        </mxCell>
        <mxCell id="CO_zZ5vlkB0ko-RMvLo9-60" value="lives -= 1" style="rounded=0;whiteSpace=wrap;html=1;" vertex="1" parent="1">
          <mxGeometry x="670.5" y="740" width="108" height="37" as="geometry" />
        </mxCell>
        <mxCell id="CO_zZ5vlkB0ko-RMvLo9-64" style="edgeStyle=orthogonalEdgeStyle;rounded=0;orthogonalLoop=1;jettySize=auto;html=1;" edge="1" parent="1" source="CO_zZ5vlkB0ko-RMvLo9-61" target="CO_zZ5vlkB0ko-RMvLo9-60">
          <mxGeometry relative="1" as="geometry" />
        </mxCell>
        <mxCell id="CO_zZ5vlkB0ko-RMvLo9-61" value="&quot;Vārdā nav tāda burta!&quot;" style="shape=tape;whiteSpace=wrap;html=1;size=0.2;" vertex="1" parent="1">
          <mxGeometry x="660" y="658" width="130" height="50" as="geometry" />
        </mxCell>
        <mxCell id="CO_zZ5vlkB0ko-RMvLo9-62" style="edgeStyle=orthogonalEdgeStyle;rounded=0;orthogonalLoop=1;jettySize=auto;html=1;exitX=1;exitY=0.5;exitDx=0;exitDy=0;entryX=0;entryY=0.5;entryDx=0;entryDy=0;entryPerimeter=0;" edge="1" parent="1" source="CO_zZ5vlkB0ko-RMvLo9-49" target="CO_zZ5vlkB0ko-RMvLo9-61">
          <mxGeometry relative="1" as="geometry" />
        </mxCell>
        <mxCell id="CO_zZ5vlkB0ko-RMvLo9-68" value="Jā" style="edgeLabel;html=1;align=center;verticalAlign=middle;resizable=0;points=[];" vertex="1" connectable="0" parent="CO_zZ5vlkB0ko-RMvLo9-62">
          <mxGeometry x="-0.5238" relative="1" as="geometry">
            <mxPoint x="3" y="-8" as="offset" />
          </mxGeometry>
        </mxCell>
        <mxCell id="CO_zZ5vlkB0ko-RMvLo9-65" style="edgeStyle=orthogonalEdgeStyle;rounded=0;orthogonalLoop=1;jettySize=auto;html=1;exitX=0;exitY=0.5;exitDx=0;exitDy=0;entryX=1;entryY=0.5;entryDx=0;entryDy=0;entryPerimeter=0;" edge="1" parent="1" source="CO_zZ5vlkB0ko-RMvLo9-60" target="CO_zZ5vlkB0ko-RMvLo9-58">
          <mxGeometry relative="1" as="geometry">
            <Array as="points">
              <mxPoint x="420" y="758" />
              <mxPoint x="420" y="683" />
            </Array>
          </mxGeometry>
        </mxCell>
        <mxCell id="CO_zZ5vlkB0ko-RMvLo9-71" style="edgeStyle=orthogonalEdgeStyle;rounded=0;orthogonalLoop=1;jettySize=auto;html=1;exitX=1;exitY=0.5;exitDx=0;exitDy=0;" edge="1" parent="1" source="CO_zZ5vlkB0ko-RMvLo9-69">
          <mxGeometry relative="1" as="geometry">
            <mxPoint x="410" y="810" as="targetPoint" />
          </mxGeometry>
        </mxCell>
        <mxCell id="CO_zZ5vlkB0ko-RMvLo9-74" value="Jā" style="edgeLabel;html=1;align=center;verticalAlign=middle;resizable=0;points=[];" vertex="1" connectable="0" parent="CO_zZ5vlkB0ko-RMvLo9-71">
          <mxGeometry x="-0.4301" y="3" relative="1" as="geometry">
            <mxPoint x="-20" y="-6" as="offset" />
          </mxGeometry>
        </mxCell>
        <mxCell id="CO_zZ5vlkB0ko-RMvLo9-77" value="" style="edgeStyle=orthogonalEdgeStyle;rounded=0;orthogonalLoop=1;jettySize=auto;html=1;" edge="1" parent="1" source="CO_zZ5vlkB0ko-RMvLo9-69" target="CO_zZ5vlkB0ko-RMvLo9-76">
          <mxGeometry relative="1" as="geometry" />
        </mxCell>
        <mxCell id="CO_zZ5vlkB0ko-RMvLo9-108" style="edgeStyle=orthogonalEdgeStyle;rounded=0;orthogonalLoop=1;jettySize=auto;html=1;exitX=0;exitY=0.5;exitDx=0;exitDy=0;entryX=0.5;entryY=0;entryDx=0;entryDy=0;" edge="1" parent="1" source="CO_zZ5vlkB0ko-RMvLo9-69" target="CO_zZ5vlkB0ko-RMvLo9-5">
          <mxGeometry relative="1" as="geometry">
            <Array as="points">
              <mxPoint x="20" y="775" />
              <mxPoint x="20" y="190" />
              <mxPoint x="514" y="190" />
            </Array>
          </mxGeometry>
        </mxCell>
        <mxCell id="CO_zZ5vlkB0ko-RMvLo9-110" value="Nē" style="edgeLabel;html=1;align=center;verticalAlign=middle;resizable=0;points=[];" vertex="1" connectable="0" parent="CO_zZ5vlkB0ko-RMvLo9-108">
          <mxGeometry x="-0.9567" relative="1" as="geometry">
            <mxPoint x="7" y="-8" as="offset" />
          </mxGeometry>
        </mxCell>
        <mxCell id="CO_zZ5vlkB0ko-RMvLo9-69" value="lives &amp;lt;= 0" style="rhombus;whiteSpace=wrap;html=1;" vertex="1" parent="1">
          <mxGeometry x="170" y="750" width="150" height="49" as="geometry" />
        </mxCell>
        <mxCell id="CO_zZ5vlkB0ko-RMvLo9-72" value="&quot;Zaudējāt&quot;" style="shape=tape;whiteSpace=wrap;html=1;size=0.2;" vertex="1" parent="1">
          <mxGeometry x="346" y="806" width="130" height="50" as="geometry" />
        </mxCell>
        <mxCell id="CO_zZ5vlkB0ko-RMvLo9-80" value="" style="edgeStyle=orthogonalEdgeStyle;rounded=0;orthogonalLoop=1;jettySize=auto;html=1;" edge="1" parent="1" source="CO_zZ5vlkB0ko-RMvLo9-76" target="CO_zZ5vlkB0ko-RMvLo9-78">
          <mxGeometry relative="1" as="geometry" />
        </mxCell>
        <mxCell id="CO_zZ5vlkB0ko-RMvLo9-76" value="&lt;div&gt;has_won = True&lt;/div&gt;&lt;div&gt;i = 0&lt;br&gt;&lt;/div&gt;" style="rounded=0;whiteSpace=wrap;html=1;" vertex="1" parent="1">
          <mxGeometry x="185" y="831" width="120" height="40" as="geometry" />
        </mxCell>
        <mxCell id="CO_zZ5vlkB0ko-RMvLo9-82" style="edgeStyle=orthogonalEdgeStyle;rounded=0;orthogonalLoop=1;jettySize=auto;html=1;exitX=0.5;exitY=1;exitDx=0;exitDy=0;entryX=0.5;entryY=0;entryDx=0;entryDy=0;" edge="1" parent="1" source="CO_zZ5vlkB0ko-RMvLo9-78" target="CO_zZ5vlkB0ko-RMvLo9-81">
          <mxGeometry relative="1" as="geometry" />
        </mxCell>
        <mxCell id="CO_zZ5vlkB0ko-RMvLo9-83" value="Nē" style="edgeLabel;html=1;align=center;verticalAlign=middle;resizable=0;points=[];" vertex="1" connectable="0" parent="CO_zZ5vlkB0ko-RMvLo9-82">
          <mxGeometry x="-0.2" relative="1" as="geometry">
            <mxPoint x="10" y="-3" as="offset" />
          </mxGeometry>
        </mxCell>
        <mxCell id="CO_zZ5vlkB0ko-RMvLo9-105" style="edgeStyle=orthogonalEdgeStyle;rounded=0;orthogonalLoop=1;jettySize=auto;html=1;exitX=1;exitY=0.5;exitDx=0;exitDy=0;entryX=0.5;entryY=0;entryDx=0;entryDy=0;" edge="1" parent="1" source="CO_zZ5vlkB0ko-RMvLo9-78" target="CO_zZ5vlkB0ko-RMvLo9-91">
          <mxGeometry relative="1" as="geometry">
            <Array as="points">
              <mxPoint x="400" y="925" />
            </Array>
          </mxGeometry>
        </mxCell>
        <mxCell id="CO_zZ5vlkB0ko-RMvLo9-106" value="Jā" style="edgeLabel;html=1;align=center;verticalAlign=middle;resizable=0;points=[];" vertex="1" connectable="0" parent="CO_zZ5vlkB0ko-RMvLo9-105">
          <mxGeometry x="-0.8384" y="2" relative="1" as="geometry">
            <mxPoint x="-12" y="-6" as="offset" />
          </mxGeometry>
        </mxCell>
        <mxCell id="CO_zZ5vlkB0ko-RMvLo9-78" value="i == len(word)" style="rhombus;whiteSpace=wrap;html=1;" vertex="1" parent="1">
          <mxGeometry x="185" y="900" width="120" height="50" as="geometry" />
        </mxCell>
        <mxCell id="CO_zZ5vlkB0ko-RMvLo9-85" value="" style="edgeStyle=orthogonalEdgeStyle;rounded=0;orthogonalLoop=1;jettySize=auto;html=1;" edge="1" parent="1" source="CO_zZ5vlkB0ko-RMvLo9-81" target="CO_zZ5vlkB0ko-RMvLo9-84">
          <mxGeometry relative="1" as="geometry" />
        </mxCell>
        <mxCell id="CO_zZ5vlkB0ko-RMvLo9-86" value="Jā" style="edgeLabel;html=1;align=center;verticalAlign=middle;resizable=0;points=[];" vertex="1" connectable="0" parent="CO_zZ5vlkB0ko-RMvLo9-85">
          <mxGeometry x="0.12" relative="1" as="geometry">
            <mxPoint x="9" y="-5" as="offset" />
          </mxGeometry>
        </mxCell>
        <mxCell id="CO_zZ5vlkB0ko-RMvLo9-90" style="edgeStyle=orthogonalEdgeStyle;rounded=0;orthogonalLoop=1;jettySize=auto;html=1;exitX=0;exitY=0.5;exitDx=0;exitDy=0;entryX=0.469;entryY=0.988;entryDx=0;entryDy=0;entryPerimeter=0;" edge="1" parent="1" source="CO_zZ5vlkB0ko-RMvLo9-81" target="CO_zZ5vlkB0ko-RMvLo9-88">
          <mxGeometry relative="1" as="geometry">
            <mxPoint x="110" y="940" as="targetPoint" />
          </mxGeometry>
        </mxCell>
        <mxCell id="CO_zZ5vlkB0ko-RMvLo9-107" value="Nē" style="edgeLabel;html=1;align=center;verticalAlign=middle;resizable=0;points=[];" vertex="1" connectable="0" parent="CO_zZ5vlkB0ko-RMvLo9-90">
          <mxGeometry x="-0.6107" relative="1" as="geometry">
            <mxPoint x="4" y="-8" as="offset" />
          </mxGeometry>
        </mxCell>
        <mxCell id="CO_zZ5vlkB0ko-RMvLo9-81" value="not word[i] in guessed_letters" style="rhombus;whiteSpace=wrap;html=1;" vertex="1" parent="1">
          <mxGeometry x="141.25" y="980" width="207.5" height="50" as="geometry" />
        </mxCell>
        <mxCell id="CO_zZ5vlkB0ko-RMvLo9-103" style="edgeStyle=orthogonalEdgeStyle;rounded=0;orthogonalLoop=1;jettySize=auto;html=1;exitX=1;exitY=0.5;exitDx=0;exitDy=0;entryX=0.5;entryY=0;entryDx=0;entryDy=0;" edge="1" parent="1" source="CO_zZ5vlkB0ko-RMvLo9-84" target="CO_zZ5vlkB0ko-RMvLo9-91">
          <mxGeometry relative="1" as="geometry" />
        </mxCell>
        <mxCell id="CO_zZ5vlkB0ko-RMvLo9-109" style="edgeStyle=orthogonalEdgeStyle;rounded=0;orthogonalLoop=1;jettySize=auto;html=1;entryX=0.5;entryY=0;entryDx=0;entryDy=0;exitX=0;exitY=0.5;exitDx=0;exitDy=0;" edge="1" parent="1" source="CO_zZ5vlkB0ko-RMvLo9-91" target="CO_zZ5vlkB0ko-RMvLo9-5">
          <mxGeometry relative="1" as="geometry">
            <mxPoint x="170" y="1160" as="sourcePoint" />
            <Array as="points">
              <mxPoint x="20" y="1135" />
              <mxPoint x="20" y="190" />
              <mxPoint x="514" y="190" />
            </Array>
          </mxGeometry>
        </mxCell>
        <mxCell id="CO_zZ5vlkB0ko-RMvLo9-112" value="Nē" style="edgeLabel;html=1;align=center;verticalAlign=middle;resizable=0;points=[];" vertex="1" connectable="0" parent="CO_zZ5vlkB0ko-RMvLo9-109">
          <mxGeometry x="-0.9816" relative="1" as="geometry">
            <mxPoint x="1" y="-8" as="offset" />
          </mxGeometry>
        </mxCell>
        <mxCell id="CO_zZ5vlkB0ko-RMvLo9-84" value="has_won = False" style="rounded=0;whiteSpace=wrap;html=1;" vertex="1" parent="1">
          <mxGeometry x="185" y="1060" width="120" height="30" as="geometry" />
        </mxCell>
        <mxCell id="CO_zZ5vlkB0ko-RMvLo9-89" style="edgeStyle=orthogonalEdgeStyle;rounded=0;orthogonalLoop=1;jettySize=auto;html=1;exitX=1;exitY=0.5;exitDx=0;exitDy=0;entryX=0;entryY=0.5;entryDx=0;entryDy=0;" edge="1" parent="1" source="CO_zZ5vlkB0ko-RMvLo9-88" target="CO_zZ5vlkB0ko-RMvLo9-78">
          <mxGeometry relative="1" as="geometry" />
        </mxCell>
        <mxCell id="CO_zZ5vlkB0ko-RMvLo9-88" value="i += 1" style="rounded=0;whiteSpace=wrap;html=1;" vertex="1" parent="1">
          <mxGeometry x="81.25" y="912.5" width="60" height="25" as="geometry" />
        </mxCell>
        <mxCell id="CO_zZ5vlkB0ko-RMvLo9-94" value="" style="edgeStyle=orthogonalEdgeStyle;rounded=0;orthogonalLoop=1;jettySize=auto;html=1;" edge="1" parent="1" source="CO_zZ5vlkB0ko-RMvLo9-91" target="CO_zZ5vlkB0ko-RMvLo9-93">
          <mxGeometry relative="1" as="geometry" />
        </mxCell>
        <mxCell id="CO_zZ5vlkB0ko-RMvLo9-102" value="Jā" style="edgeLabel;html=1;align=center;verticalAlign=middle;resizable=0;points=[];" vertex="1" connectable="0" parent="CO_zZ5vlkB0ko-RMvLo9-94">
          <mxGeometry x="-0.3773" y="1" relative="1" as="geometry">
            <mxPoint x="-6" y="-7" as="offset" />
          </mxGeometry>
        </mxCell>
        <mxCell id="CO_zZ5vlkB0ko-RMvLo9-91" value="has_won?" style="rhombus;whiteSpace=wrap;html=1;" vertex="1" parent="1">
          <mxGeometry x="360" y="1110" width="80" height="50" as="geometry" />
        </mxCell>
        <mxCell id="CO_zZ5vlkB0ko-RMvLo9-93" value="&quot;Uzvarējāt&quot;" style="shape=tape;whiteSpace=wrap;html=1;size=0.2;" vertex="1" parent="1">
          <mxGeometry x="492" y="1110" width="130" height="50" as="geometry" />
        </mxCell>
        <mxCell id="CO_zZ5vlkB0ko-RMvLo9-97" value="" style="edgeStyle=orthogonalEdgeStyle;rounded=0;orthogonalLoop=1;jettySize=auto;html=1;" edge="1" parent="1" source="CO_zZ5vlkB0ko-RMvLo9-95" target="CO_zZ5vlkB0ko-RMvLo9-96">
          <mxGeometry relative="1" as="geometry" />
        </mxCell>
        <mxCell id="CO_zZ5vlkB0ko-RMvLo9-95" value="f&quot;Pareizā atbilde bija \&quot;{word}\&quot;&quot;" style="shape=tape;whiteSpace=wrap;html=1;size=0.2;" vertex="1" parent="1">
          <mxGeometry x="570" y="1200" width="220" height="50" as="geometry" />
        </mxCell>
        <mxCell id="CO_zZ5vlkB0ko-RMvLo9-96" value="Beigas" style="ellipse;whiteSpace=wrap;html=1;" vertex="1" parent="1">
          <mxGeometry x="620" y="1290" width="120" height="50" as="geometry" />
        </mxCell>
        <mxCell id="CO_zZ5vlkB0ko-RMvLo9-98" style="edgeStyle=orthogonalEdgeStyle;rounded=0;orthogonalLoop=1;jettySize=auto;html=1;entryX=0.501;entryY=0.03;entryDx=0;entryDy=0;entryPerimeter=0;" edge="1" parent="1" source="CO_zZ5vlkB0ko-RMvLo9-93" target="CO_zZ5vlkB0ko-RMvLo9-95">
          <mxGeometry relative="1" as="geometry">
            <Array as="points">
              <mxPoint x="680" y="1135" />
            </Array>
          </mxGeometry>
        </mxCell>
        <mxCell id="CO_zZ5vlkB0ko-RMvLo9-99" style="edgeStyle=orthogonalEdgeStyle;rounded=0;orthogonalLoop=1;jettySize=auto;html=1;exitX=1;exitY=0.5;exitDx=0;exitDy=0;exitPerimeter=0;" edge="1" parent="1">
          <mxGeometry relative="1" as="geometry">
            <mxPoint x="475.78" y="823.25" as="sourcePoint" />
            <mxPoint x="680" y="1200" as="targetPoint" />
          </mxGeometry>
        </mxCell>
        <mxCell id="CO_zZ5vlkB0ko-RMvLo9-100" style="edgeStyle=orthogonalEdgeStyle;rounded=0;orthogonalLoop=1;jettySize=auto;html=1;exitX=1;exitY=0.5;exitDx=0;exitDy=0;exitPerimeter=0;" edge="1" parent="1">
          <mxGeometry relative="1" as="geometry">
            <mxPoint x="476" y="823.25" as="sourcePoint" />
            <mxPoint x="680" y="1200" as="targetPoint" />
          </mxGeometry>
        </mxCell>
      </root>
    </mxGraphModel>
  </diagram>
</mxfile>
